<svg width="428" height="926" viewBox="0 0 428 926" fill="none" xmlns="http://www.w3.org/2000/svg">
<g clip-path="url(#clip0_1_55)">
<rect width="428" height="926" fill="url(#paint0_linear_1_55)"/>
<g opacity="0.7">
<path d="M267.995 124.596H228.778V115.73H267.995V124.596Z" fill="#F3F6F5"/>
<path d="M222.779 118.598C222.779 121.91 225.465 124.596 228.779 124.596C232.092 124.596 234.778 121.91 234.778 118.598C234.778 115.285 232.092 112.6 228.779 112.6C225.465 112.6 222.779 115.285 222.779 118.598Z" fill="#F3F6F5"/>
<path d="M228.777 111.395C228.777 115.204 231.866 118.292 235.676 118.292C239.486 118.292 242.574 115.204 242.574 111.395C242.574 107.586 239.486 104.499 235.676 104.499C231.866 104.499 228.777 107.586 228.777 111.395Z" fill="#F3F6F5"/>
<path d="M236.557 108.927C236.557 117.58 243.574 124.596 252.23 124.596C260.886 124.596 267.903 117.58 267.903 108.927C267.903 100.273 260.886 93.2583 252.23 93.2583C243.574 93.2583 236.557 100.273 236.557 108.927Z" fill="#F3F6F5"/>
<path d="M258.649 115.645C258.649 120.589 262.657 124.596 267.601 124.596C272.545 124.596 276.554 120.589 276.554 115.645C276.554 110.702 272.545 106.695 267.601 106.695C262.657 106.695 258.649 110.702 258.649 115.645Z" fill="#F3F6F5"/>
</g>
<path d="M362.009 204.071H346.906V200.657H362.009V204.071Z" fill="#ECF2F0"/>
<path d="M344.595 201.761C344.595 203.037 345.629 204.071 346.905 204.071C348.181 204.071 349.216 203.037 349.216 201.761C349.216 200.485 348.181 199.451 346.905 199.451C345.629 199.451 344.595 200.485 344.595 201.761Z" fill="#ECF2F0"/>
<path d="M346.905 198.987C346.905 200.454 348.095 201.643 349.562 201.643C351.029 201.643 352.219 200.454 352.219 198.987C352.219 197.52 351.029 196.331 349.562 196.331C348.095 196.331 346.905 197.52 346.905 198.987Z" fill="#ECF2F0"/>
<path d="M349.901 198.037C349.901 201.369 352.603 204.071 355.937 204.071C359.271 204.071 361.973 201.369 361.973 198.037C361.973 194.704 359.271 192.002 355.937 192.002C352.603 192.002 349.901 194.704 349.901 198.037Z" fill="#ECF2F0"/>
<path d="M358.409 200.624C358.409 202.528 359.953 204.071 361.857 204.071C363.761 204.071 365.304 202.528 365.304 200.624C365.304 198.72 363.761 197.177 361.857 197.177C359.953 197.177 358.409 198.72 358.409 200.624Z" fill="#ECF2F0"/>
<path d="M129.969 217.677H101.957V211.345H129.969V217.677Z" fill="#ECEDF1"/>
<path d="M97.6716 213.393C97.6716 215.759 99.5901 217.678 101.957 217.678C104.323 217.678 106.242 215.759 106.242 213.393C106.242 211.027 104.323 209.109 101.957 209.109C99.5901 209.109 97.6716 211.027 97.6716 213.393Z" fill="#ECEDF1"/>
<path d="M101.956 208.249C101.956 210.97 104.162 213.175 106.883 213.175C109.605 213.175 111.811 210.97 111.811 208.249C111.811 205.528 109.605 203.323 106.883 203.323C104.162 203.323 101.956 205.528 101.956 208.249Z" fill="#ECEDF1"/>
<path d="M107.513 206.486C107.513 212.667 112.525 217.678 118.708 217.678C124.891 217.678 129.903 212.667 129.903 206.486C129.903 200.304 124.891 195.294 118.708 195.294C112.525 195.294 107.513 200.304 107.513 206.486Z" fill="#ECEDF1"/>
<path d="M123.293 211.285C123.293 214.815 126.156 217.678 129.687 217.678C133.219 217.678 136.082 214.815 136.082 211.285C136.082 207.754 133.219 204.892 129.687 204.892C126.156 204.892 123.293 207.754 123.293 211.285Z" fill="#ECEDF1"/>
<g opacity="0.4" filter="url(#filter0_d_1_55)">
<circle cx="71.8638" cy="241.923" r="13.7145" fill="url(#paint1_linear_1_55)"/>
</g>
<g opacity="0.4" filter="url(#filter1_d_1_55)">
<circle cx="354.93" cy="154.15" r="4.9372" fill="url(#paint2_linear_1_55)"/>
</g>
<g opacity="0.7">
<path d="M393.354 92.6018H365.342V86.269H393.354V92.6018Z" fill="#F3F6F5"/>
<path d="M361.056 88.3178C361.056 90.6838 362.975 92.6018 365.342 92.6018C367.708 92.6018 369.627 90.6838 369.627 88.3178C369.627 85.9518 367.708 84.0337 365.342 84.0337C362.975 84.0337 361.056 85.9518 361.056 88.3178Z" fill="#F3F6F5"/>
<path d="M365.341 83.1731C365.341 85.8939 367.547 88.0994 370.268 88.0994C372.99 88.0994 375.196 85.8939 375.196 83.1731C375.196 80.4524 372.99 78.2469 370.268 78.2469C367.547 78.2469 365.341 80.4524 365.341 83.1731Z" fill="#F3F6F5"/>
<path d="M370.898 81.4099C370.898 87.591 375.91 92.6018 382.093 92.6018C388.275 92.6018 393.287 87.591 393.287 81.4099C393.287 75.2288 388.275 70.218 382.093 70.218C375.91 70.218 370.898 75.2288 370.898 81.4099Z" fill="#F3F6F5"/>
<path d="M386.677 86.209C386.677 89.7397 389.54 92.6019 393.072 92.6019C396.604 92.6019 399.467 89.7397 399.467 86.209C399.467 82.6782 396.604 79.816 393.072 79.816C389.54 79.816 386.677 82.6782 386.677 86.209Z" fill="#F3F6F5"/>
</g>
<g opacity="0.7">
<path d="M289.697 18.7343H274.491V15.2965H289.697V18.7343Z" fill="#F3F6F5"/>
<path d="M272.164 16.4086C272.164 17.693 273.206 18.7342 274.49 18.7342C275.775 18.7342 276.816 17.693 276.816 16.4086C276.816 15.1242 275.775 14.083 274.49 14.083C273.206 14.083 272.164 15.1242 272.164 16.4086Z" fill="#F3F6F5"/>
<path d="M274.49 13.6158C274.49 15.0927 275.687 16.29 277.165 16.29C278.642 16.29 279.84 15.0927 279.84 13.6158C279.84 12.1388 278.642 10.9415 277.165 10.9415C275.687 10.9415 274.49 12.1388 274.49 13.6158Z" fill="#F3F6F5"/>
<path d="M277.507 12.6585C277.507 16.0139 280.227 18.7341 283.584 18.7341C286.94 18.7341 289.661 16.0139 289.661 12.6585C289.661 9.30301 286.94 6.58289 283.584 6.58289C280.227 6.58289 277.507 9.30301 277.507 12.6585Z" fill="#F3F6F5"/>
<path d="M286.073 15.2635C286.073 17.1802 287.627 18.734 289.544 18.734C291.461 18.734 293.015 17.1802 293.015 15.2635C293.015 13.3468 291.461 11.793 289.544 11.793C287.627 11.793 286.073 13.3468 286.073 15.2635Z" fill="#F3F6F5"/>
</g>
<g opacity="0.7">
<path d="M32.2974 304.353H4.28537V298.02H32.2974V304.353Z" fill="#F3F6F5"/>
<path d="M0.00012207 300.069C0.00012207 302.435 1.91865 304.353 4.28526 304.353C6.65187 304.353 8.57039 302.435 8.57039 300.069C8.57039 297.703 6.65187 295.785 4.28526 295.785C1.91865 295.785 0.00012207 297.703 0.00012207 300.069Z" fill="#F3F6F5"/>
<path d="M4.28456 294.924C4.28456 297.645 6.49069 299.851 9.21211 299.851C11.9335 299.851 14.1396 297.645 14.1396 294.924C14.1396 292.204 11.9335 289.998 9.21211 289.998C6.49069 289.998 4.28456 292.204 4.28456 294.924Z" fill="#F3F6F5"/>
<path d="M9.84142 293.161C9.84142 299.342 14.8535 304.353 21.0362 304.353C27.2188 304.353 32.2309 299.342 32.2309 293.161C32.2309 286.98 27.2188 281.969 21.0362 281.969C14.8535 281.969 9.84142 286.98 9.84142 293.161Z" fill="#F3F6F5"/>
<path d="M25.6211 297.96C25.6211 301.491 28.484 304.353 32.0157 304.353C35.5473 304.353 38.4103 301.491 38.4103 297.96C38.4103 294.429 35.5473 291.567 32.0157 291.567C28.484 291.567 25.6211 294.429 25.6211 297.96Z" fill="#F3F6F5"/>
</g>
<path d="M124.706 332.214H100.518V326.745H124.706V332.214Z" fill="#ECEDF1"/>
<path d="M96.8181 328.514C96.8181 330.558 98.4747 332.214 100.518 332.214C102.562 332.214 104.218 330.558 104.218 328.514C104.218 326.471 102.562 324.815 100.518 324.815C98.4747 324.815 96.8181 326.471 96.8181 328.514Z" fill="#ECEDF1"/>
<path d="M100.518 324.072C100.518 326.421 102.423 328.326 104.773 328.326C107.122 328.326 109.027 326.421 109.027 324.072C109.027 321.723 107.122 319.818 104.773 319.818C102.423 319.818 100.518 321.723 100.518 324.072Z" fill="#ECEDF1"/>
<path d="M105.316 322.55C105.316 327.887 109.644 332.214 114.982 332.214C120.321 332.214 124.649 327.887 124.649 322.55C124.649 317.212 120.321 312.886 114.982 312.886C109.644 312.886 105.316 317.212 105.316 322.55Z" fill="#ECEDF1"/>
<path d="M118.942 326.693C118.942 329.742 121.414 332.214 124.463 332.214C127.513 332.214 129.985 329.742 129.985 326.693C129.985 323.645 127.513 321.173 124.463 321.173C121.414 321.173 118.942 323.645 118.942 326.693Z" fill="#ECEDF1"/>
<path d="M116.75 70.113H93.5402V64.8658H116.75V70.113Z" fill="#ECF2F0"/>
<path d="M89.9896 66.5632C89.9896 68.5236 91.5793 70.1129 93.5402 70.1129C95.5011 70.1129 97.0907 68.5236 97.0907 66.5632C97.0907 64.6028 95.5011 63.0136 93.5402 63.0136C91.5793 63.0136 89.9896 64.6028 89.9896 66.5632Z" fill="#ECF2F0"/>
<path d="M93.5397 62.3004C93.5397 64.5547 95.3676 66.3822 97.6225 66.3822C99.8774 66.3822 101.705 64.5547 101.705 62.3004C101.705 60.0461 99.8774 58.2186 97.6225 58.2186C95.3676 58.2186 93.5397 60.0461 93.5397 62.3004Z" fill="#ECF2F0"/>
<path d="M98.1438 60.8396C98.1438 65.961 102.297 70.1129 107.419 70.1129C112.542 70.1129 116.695 65.961 116.695 60.8396C116.695 55.7181 112.542 51.5663 107.419 51.5663C102.297 51.5663 98.1438 55.7181 98.1438 60.8396Z" fill="#ECF2F0"/>
<path d="M111.219 64.8158C111.219 67.7413 113.591 70.1129 116.517 70.1129C119.443 70.1129 121.815 67.7413 121.815 64.8158C121.815 61.8903 119.443 59.5188 116.517 59.5188C113.591 59.5188 111.219 61.8903 111.219 64.8158Z" fill="#ECF2F0"/>
<g filter="url(#filter2_d_1_55)">
<path d="M302.892 98.7441C302.892 101.774 300.436 104.23 297.405 104.23C294.375 104.23 291.918 101.774 291.918 98.7441C291.918 95.7144 294.375 93.2583 297.405 93.2583C300.436 93.2583 302.892 95.7144 302.892 98.7441Z" fill="url(#paint3_linear_1_55)"/>
</g>
<g filter="url(#filter3_d_1_55)">
<path d="M49.3847 16.4573C49.3847 19.4871 46.928 21.9431 43.8975 21.9431C40.867 21.9431 38.4103 19.4871 38.4103 16.4573C38.4103 13.4276 40.867 10.9716 43.8975 10.9716C46.928 10.9716 49.3847 13.4276 49.3847 16.4573Z" fill="url(#paint4_linear_1_55)"/>
</g>
<g filter="url(#filter4_d_1_55)">
<path d="M327.605 305.7C327.605 309.515 324.511 312.608 320.695 312.608C316.879 312.608 313.785 309.515 313.785 305.7C313.785 301.885 316.879 298.792 320.695 298.792C324.511 298.792 327.605 301.885 327.605 305.7Z" fill="url(#paint5_linear_1_55)"/>
</g>
</g>
<defs>
<filter id="filter0_d_1_55" x="53.7607" y="228.209" width="36.2062" height="36.2062" filterUnits="userSpaceOnUse" color-interpolation-filters="sRGB">
<feFlood flood-opacity="0" result="BackgroundImageFix"/>
<feColorMatrix in="SourceAlpha" type="matrix" values="0 0 0 0 0 0 0 0 0 0 0 0 0 0 0 0 0 0 127 0" result="hardAlpha"/>
<feOffset dy="4.38863"/>
<feGaussianBlur stdDeviation="2.19431"/>
<feComposite in2="hardAlpha" operator="out"/>
<feColorMatrix type="matrix" values="0 0 0 0 0.27451 0 0 0 0 0.729412 0 0 0 0 0.498039 0 0 0 0.03 0"/>
<feBlend mode="normal" in2="BackgroundImageFix" result="effect1_dropShadow_1_55"/>
<feBlend mode="normal" in="SourceGraphic" in2="effect1_dropShadow_1_55" result="shape"/>
</filter>
<filter id="filter1_d_1_55" x="345.604" y="149.213" width="18.6517" height="18.6517" filterUnits="userSpaceOnUse" color-interpolation-filters="sRGB">
<feFlood flood-opacity="0" result="BackgroundImageFix"/>
<feColorMatrix in="SourceAlpha" type="matrix" values="0 0 0 0 0 0 0 0 0 0 0 0 0 0 0 0 0 0 127 0" result="hardAlpha"/>
<feOffset dy="4.38863"/>
<feGaussianBlur stdDeviation="2.19431"/>
<feComposite in2="hardAlpha" operator="out"/>
<feColorMatrix type="matrix" values="0 0 0 0 0.27451 0 0 0 0 0.729412 0 0 0 0 0.498039 0 0 0 0.03 0"/>
<feBlend mode="normal" in2="BackgroundImageFix" result="effect1_dropShadow_1_55"/>
<feBlend mode="normal" in="SourceGraphic" in2="effect1_dropShadow_1_55" result="shape"/>
</filter>
<filter id="filter2_d_1_55" x="285.254" y="93.2583" width="24.3028" height="24.3" filterUnits="userSpaceOnUse" color-interpolation-filters="sRGB">
<feFlood flood-opacity="0" result="BackgroundImageFix"/>
<feColorMatrix in="SourceAlpha" type="matrix" values="0 0 0 0 0 0 0 0 0 0 0 0 0 0 0 0 0 0 127 0" result="hardAlpha"/>
<feOffset dy="6.66421"/>
<feGaussianBlur stdDeviation="3.3321"/>
<feComposite in2="hardAlpha" operator="out"/>
<feColorMatrix type="matrix" values="0 0 0 0 0.27451 0 0 0 0 0.729412 0 0 0 0 0.498039 0 0 0 0.03 0"/>
<feBlend mode="normal" in2="BackgroundImageFix" result="effect1_dropShadow_1_55"/>
<feBlend mode="normal" in="SourceGraphic" in2="effect1_dropShadow_1_55" result="shape"/>
</filter>
<filter id="filter3_d_1_55" x="31.7461" y="10.9716" width="24.3028" height="24.3" filterUnits="userSpaceOnUse" color-interpolation-filters="sRGB">
<feFlood flood-opacity="0" result="BackgroundImageFix"/>
<feColorMatrix in="SourceAlpha" type="matrix" values="0 0 0 0 0 0 0 0 0 0 0 0 0 0 0 0 0 0 127 0" result="hardAlpha"/>
<feOffset dy="6.66421"/>
<feGaussianBlur stdDeviation="3.3321"/>
<feComposite in2="hardAlpha" operator="out"/>
<feColorMatrix type="matrix" values="0 0 0 0 0.27451 0 0 0 0 0.729412 0 0 0 0 0.498039 0 0 0 0.03 0"/>
<feBlend mode="normal" in2="BackgroundImageFix" result="effect1_dropShadow_1_55"/>
<feBlend mode="normal" in="SourceGraphic" in2="effect1_dropShadow_1_55" result="shape"/>
</filter>
<filter id="filter4_d_1_55" x="305.393" y="298.792" width="30.6035" height="30.6" filterUnits="userSpaceOnUse" color-interpolation-filters="sRGB">
<feFlood flood-opacity="0" result="BackgroundImageFix"/>
<feColorMatrix in="SourceAlpha" type="matrix" values="0 0 0 0 0 0 0 0 0 0 0 0 0 0 0 0 0 0 127 0" result="hardAlpha"/>
<feOffset dy="8.39197"/>
<feGaussianBlur stdDeviation="4.19598"/>
<feComposite in2="hardAlpha" operator="out"/>
<feColorMatrix type="matrix" values="0 0 0 0 0.27451 0 0 0 0 0.729412 0 0 0 0 0.498039 0 0 0 0.03 0"/>
<feBlend mode="normal" in2="BackgroundImageFix" result="effect1_dropShadow_1_55"/>
<feBlend mode="normal" in="SourceGraphic" in2="effect1_dropShadow_1_55" result="shape"/>
</filter>
<linearGradient id="paint0_linear_1_55" x1="214" y1="0" x2="214" y2="926" gradientUnits="userSpaceOnUse">
<stop stop-color="#DBE4E9"/>
<stop offset="1" stop-color="#F0F0F3"/>
</linearGradient>
<linearGradient id="paint1_linear_1_55" x1="71.8638" y1="216.453" x2="71.8638" y2="255.637" gradientUnits="userSpaceOnUse">
<stop offset="0.3" stop-color="white"/>
<stop offset="1" stop-color="#E2EBE7"/>
</linearGradient>
<linearGradient id="paint2_linear_1_55" x1="354.93" y1="144.981" x2="354.93" y2="159.088" gradientUnits="userSpaceOnUse">
<stop offset="0.3" stop-color="white"/>
<stop offset="1" stop-color="#E2EBE7"/>
</linearGradient>
<linearGradient id="paint3_linear_1_55" x1="297.405" y1="85.1699" x2="297.405" y2="100.844" gradientUnits="userSpaceOnUse">
<stop offset="0.3" stop-color="white"/>
<stop offset="1" stop-color="#E2EBE7"/>
</linearGradient>
<linearGradient id="paint4_linear_1_55" x1="43.8975" y1="2.88317" x2="43.8975" y2="18.5568" gradientUnits="userSpaceOnUse">
<stop offset="0.3" stop-color="white"/>
<stop offset="1" stop-color="#E2EBE7"/>
</linearGradient>
<linearGradient id="paint5_linear_1_55" x1="320.695" y1="288.607" x2="320.695" y2="308.344" gradientUnits="userSpaceOnUse">
<stop offset="0.3" stop-color="white"/>
<stop offset="1" stop-color="#E2EBE7"/>
</linearGradient>
<clipPath id="clip0_1_55">
<rect width="428" height="926" fill="white"/>
</clipPath>
</defs>
</svg>
